<mxfile host="app.diagrams.net" agent="Mozilla/5.0 (Windows NT 10.0; Win64; x64) AppleWebKit/537.36 (KHTML, like Gecko) Chrome/122.0.0.0 Safari/537.36" version="26.2.14">
  <diagram name="Page-1" id="cg26zeHAfPYSLwBz31Go">
    <mxGraphModel dx="748" dy="782" grid="0" gridSize="10" guides="1" tooltips="1" connect="1" arrows="1" fold="1" page="0" pageScale="1" pageWidth="827" pageHeight="1169" math="0" shadow="0">
      <root>
        <mxCell id="0" />
        <mxCell id="1" parent="0" />
        <mxCell id="hbbTRyOxC2RGxaQ1tcMn-1" value="User" style="rounded=0;whiteSpace=wrap;html=1;" parent="1" vertex="1">
          <mxGeometry x="1410" y="370" width="80" height="35" as="geometry" />
        </mxCell>
        <mxCell id="hbbTRyOxC2RGxaQ1tcMn-2" value="Rates" style="rhombus;whiteSpace=wrap;html=1;" parent="1" vertex="1">
          <mxGeometry x="1410" y="483.5" width="80" height="45" as="geometry" />
        </mxCell>
        <mxCell id="hbbTRyOxC2RGxaQ1tcMn-3" value="" style="endArrow=none;html=1;rounded=0;entryX=0.5;entryY=0;entryDx=0;entryDy=0;exitX=0.5;exitY=1;exitDx=0;exitDy=0;" parent="1" source="hbbTRyOxC2RGxaQ1tcMn-1" target="hbbTRyOxC2RGxaQ1tcMn-2" edge="1">
          <mxGeometry width="50" height="50" relative="1" as="geometry">
            <mxPoint x="1260" y="420" as="sourcePoint" />
            <mxPoint x="1310" y="370" as="targetPoint" />
            <Array as="points" />
          </mxGeometry>
        </mxCell>
        <mxCell id="hbbTRyOxC2RGxaQ1tcMn-4" value="Bookclub" style="rounded=0;whiteSpace=wrap;html=1;" parent="1" vertex="1">
          <mxGeometry x="1406" y="154" width="80" height="35" as="geometry" />
        </mxCell>
        <mxCell id="hbbTRyOxC2RGxaQ1tcMn-5" value="Book" style="rounded=0;whiteSpace=wrap;html=1;" parent="1" vertex="1">
          <mxGeometry x="1410" y="587.5" width="80" height="35" as="geometry" />
        </mxCell>
        <mxCell id="hbbTRyOxC2RGxaQ1tcMn-6" value="" style="endArrow=none;html=1;rounded=0;entryX=0.5;entryY=0;entryDx=0;entryDy=0;exitX=0.5;exitY=1;exitDx=0;exitDy=0;" parent="1" source="hbbTRyOxC2RGxaQ1tcMn-2" target="hbbTRyOxC2RGxaQ1tcMn-5" edge="1">
          <mxGeometry width="50" height="50" relative="1" as="geometry">
            <mxPoint x="1500" y="437.5" as="sourcePoint" />
            <mxPoint x="1550" y="387.5" as="targetPoint" />
          </mxGeometry>
        </mxCell>
        <mxCell id="hbbTRyOxC2RGxaQ1tcMn-7" value="Author" style="ellipse;whiteSpace=wrap;html=1;" parent="1" vertex="1">
          <mxGeometry x="1306" y="678" width="80" height="20" as="geometry" />
        </mxCell>
        <mxCell id="hbbTRyOxC2RGxaQ1tcMn-8" value="Title" style="ellipse;whiteSpace=wrap;html=1;" parent="1" vertex="1">
          <mxGeometry x="1410" y="680" width="80" height="20" as="geometry" />
        </mxCell>
        <mxCell id="hbbTRyOxC2RGxaQ1tcMn-9" value="&lt;u&gt;BookID&lt;/u&gt;" style="ellipse;whiteSpace=wrap;html=1;" parent="1" vertex="1">
          <mxGeometry x="1523" y="680" width="80" height="20" as="geometry" />
        </mxCell>
        <mxCell id="hbbTRyOxC2RGxaQ1tcMn-10" value="" style="endArrow=none;html=1;rounded=0;exitX=1;exitY=0.25;exitDx=0;exitDy=0;entryX=0;entryY=0.5;entryDx=0;entryDy=0;" parent="1" target="hbbTRyOxC2RGxaQ1tcMn-11" edge="1">
          <mxGeometry width="50" height="50" relative="1" as="geometry">
            <mxPoint x="1490" y="604.66" as="sourcePoint" />
            <mxPoint x="1560" y="600" as="targetPoint" />
          </mxGeometry>
        </mxCell>
        <mxCell id="hbbTRyOxC2RGxaQ1tcMn-11" value="Has" style="rhombus;whiteSpace=wrap;html=1;" parent="1" vertex="1">
          <mxGeometry x="1580" y="582.5" width="80" height="45" as="geometry" />
        </mxCell>
        <mxCell id="hbbTRyOxC2RGxaQ1tcMn-12" value="Book&lt;div&gt;Comment&lt;/div&gt;" style="rounded=0;whiteSpace=wrap;html=1;" parent="1" vertex="1">
          <mxGeometry x="1730" y="587.5" width="80" height="35" as="geometry" />
        </mxCell>
        <mxCell id="hbbTRyOxC2RGxaQ1tcMn-13" value="" style="endArrow=none;html=1;rounded=0;entryX=1;entryY=0.5;entryDx=0;entryDy=0;exitX=0;exitY=0.5;exitDx=0;exitDy=0;" parent="1" source="hbbTRyOxC2RGxaQ1tcMn-12" target="hbbTRyOxC2RGxaQ1tcMn-11" edge="1">
          <mxGeometry width="50" height="50" relative="1" as="geometry">
            <mxPoint x="1410" y="430" as="sourcePoint" />
            <mxPoint x="1460" y="380" as="targetPoint" />
          </mxGeometry>
        </mxCell>
        <mxCell id="hbbTRyOxC2RGxaQ1tcMn-14" value="&lt;u&gt;CommentID&lt;/u&gt;" style="ellipse;whiteSpace=wrap;html=1;" parent="1" vertex="1">
          <mxGeometry x="1869" y="575" width="80" height="20" as="geometry" />
        </mxCell>
        <mxCell id="hbbTRyOxC2RGxaQ1tcMn-15" value="Content" style="ellipse;whiteSpace=wrap;html=1;" parent="1" vertex="1">
          <mxGeometry x="1869" y="617" width="80" height="20" as="geometry" />
        </mxCell>
        <mxCell id="hbbTRyOxC2RGxaQ1tcMn-16" value="" style="endArrow=none;html=1;rounded=0;entryX=0.5;entryY=1;entryDx=0;entryDy=0;exitX=0.5;exitY=0;exitDx=0;exitDy=0;" parent="1" source="hbbTRyOxC2RGxaQ1tcMn-8" target="hbbTRyOxC2RGxaQ1tcMn-5" edge="1">
          <mxGeometry width="50" height="50" relative="1" as="geometry">
            <mxPoint x="1480" y="670" as="sourcePoint" />
            <mxPoint x="1530" y="620" as="targetPoint" />
          </mxGeometry>
        </mxCell>
        <mxCell id="hbbTRyOxC2RGxaQ1tcMn-19" value="&lt;u&gt;UserID&lt;/u&gt;" style="ellipse;whiteSpace=wrap;html=1;" parent="1" vertex="1">
          <mxGeometry x="1325" y="408" width="80" height="20" as="geometry" />
        </mxCell>
        <mxCell id="hbbTRyOxC2RGxaQ1tcMn-20" value="Username" style="ellipse;whiteSpace=wrap;html=1;" parent="1" vertex="1">
          <mxGeometry x="1505" y="408" width="80" height="20" as="geometry" />
        </mxCell>
        <mxCell id="hbbTRyOxC2RGxaQ1tcMn-23" value="&lt;u&gt;ClubID&lt;/u&gt;" style="ellipse;whiteSpace=wrap;html=1;" parent="1" vertex="1">
          <mxGeometry x="1306" y="89" width="80" height="20" as="geometry" />
        </mxCell>
        <mxCell id="hbbTRyOxC2RGxaQ1tcMn-24" value="ClubName" style="ellipse;whiteSpace=wrap;html=1;" parent="1" vertex="1">
          <mxGeometry x="1406" y="89" width="80" height="20" as="geometry" />
        </mxCell>
        <mxCell id="hbbTRyOxC2RGxaQ1tcMn-25" value="Description" style="ellipse;whiteSpace=wrap;html=1;" parent="1" vertex="1">
          <mxGeometry x="1506" y="89" width="80" height="20" as="geometry" />
        </mxCell>
        <mxCell id="hbbTRyOxC2RGxaQ1tcMn-26" value="" style="endArrow=none;html=1;rounded=0;entryX=0.5;entryY=0;entryDx=0;entryDy=0;exitX=0.5;exitY=1;exitDx=0;exitDy=0;" parent="1" source="hbbTRyOxC2RGxaQ1tcMn-24" target="hbbTRyOxC2RGxaQ1tcMn-4" edge="1">
          <mxGeometry width="50" height="50" relative="1" as="geometry">
            <mxPoint x="1266" y="414" as="sourcePoint" />
            <mxPoint x="1316" y="364" as="targetPoint" />
          </mxGeometry>
        </mxCell>
        <mxCell id="hbbTRyOxC2RGxaQ1tcMn-27" value="" style="endArrow=none;html=1;rounded=0;entryX=0.25;entryY=0;entryDx=0;entryDy=0;exitX=0.5;exitY=1;exitDx=0;exitDy=0;" parent="1" source="hbbTRyOxC2RGxaQ1tcMn-23" target="hbbTRyOxC2RGxaQ1tcMn-4" edge="1">
          <mxGeometry width="50" height="50" relative="1" as="geometry">
            <mxPoint x="1266" y="414" as="sourcePoint" />
            <mxPoint x="1316" y="364" as="targetPoint" />
            <Array as="points">
              <mxPoint x="1376" y="144" />
            </Array>
          </mxGeometry>
        </mxCell>
        <mxCell id="hbbTRyOxC2RGxaQ1tcMn-28" value="" style="endArrow=none;html=1;rounded=0;entryX=0.75;entryY=0;entryDx=0;entryDy=0;exitX=0.5;exitY=1;exitDx=0;exitDy=0;" parent="1" source="hbbTRyOxC2RGxaQ1tcMn-25" target="hbbTRyOxC2RGxaQ1tcMn-4" edge="1">
          <mxGeometry width="50" height="50" relative="1" as="geometry">
            <mxPoint x="1266" y="414" as="sourcePoint" />
            <mxPoint x="1316" y="364" as="targetPoint" />
            <Array as="points">
              <mxPoint x="1516" y="144" />
            </Array>
          </mxGeometry>
        </mxCell>
        <mxCell id="hbbTRyOxC2RGxaQ1tcMn-29" value="Adds new" style="rhombus;whiteSpace=wrap;html=1;" parent="1" vertex="1">
          <mxGeometry x="1150" y="355" width="80" height="45" as="geometry" />
        </mxCell>
        <mxCell id="hbbTRyOxC2RGxaQ1tcMn-30" value="" style="endArrow=none;html=1;rounded=0;entryX=0.5;entryY=0;entryDx=0;entryDy=0;exitX=0.5;exitY=1;exitDx=0;exitDy=0;" parent="1" source="hbbTRyOxC2RGxaQ1tcMn-4" edge="1">
          <mxGeometry width="50" height="50" relative="1" as="geometry">
            <mxPoint x="1216" y="454" as="sourcePoint" />
            <mxPoint x="1446" y="246.5" as="targetPoint" />
          </mxGeometry>
        </mxCell>
        <mxCell id="hbbTRyOxC2RGxaQ1tcMn-35" value="" style="endArrow=none;html=1;rounded=0;entryX=0.394;entryY=0.022;entryDx=0;entryDy=0;exitX=0.5;exitY=1;exitDx=0;exitDy=0;entryPerimeter=0;" parent="1" source="keDXUPkcpk8_cCBQaGo0-1" target="hbbTRyOxC2RGxaQ1tcMn-1" edge="1">
          <mxGeometry width="50" height="50" relative="1" as="geometry">
            <mxPoint x="1380" y="325" as="sourcePoint" />
            <mxPoint x="1210" y="360" as="targetPoint" />
          </mxGeometry>
        </mxCell>
        <mxCell id="hbbTRyOxC2RGxaQ1tcMn-38" value="" style="endArrow=none;html=1;rounded=0;entryX=0;entryY=0.25;entryDx=0;entryDy=0;exitX=1;exitY=0.5;exitDx=0;exitDy=0;" parent="1" source="hbbTRyOxC2RGxaQ1tcMn-29" target="hbbTRyOxC2RGxaQ1tcMn-1" edge="1">
          <mxGeometry width="50" height="50" relative="1" as="geometry">
            <mxPoint x="1490" y="410" as="sourcePoint" />
            <mxPoint x="1540" y="360" as="targetPoint" />
            <Array as="points" />
          </mxGeometry>
        </mxCell>
        <mxCell id="hbbTRyOxC2RGxaQ1tcMn-39" value="" style="endArrow=none;html=1;rounded=0;entryX=0.5;entryY=1;entryDx=0;entryDy=0;exitX=0;exitY=0.25;exitDx=0;exitDy=0;" parent="1" source="hbbTRyOxC2RGxaQ1tcMn-5" target="hbbTRyOxC2RGxaQ1tcMn-29" edge="1">
          <mxGeometry width="50" height="50" relative="1" as="geometry">
            <mxPoint x="1490" y="410" as="sourcePoint" />
            <mxPoint x="1540" y="360" as="targetPoint" />
            <Array as="points">
              <mxPoint x="1190" y="596" />
            </Array>
          </mxGeometry>
        </mxCell>
        <mxCell id="hbbTRyOxC2RGxaQ1tcMn-45" value="Writes" style="rhombus;whiteSpace=wrap;html=1;" parent="1" vertex="1">
          <mxGeometry x="1710" y="360" width="80" height="45" as="geometry" />
        </mxCell>
        <mxCell id="hbbTRyOxC2RGxaQ1tcMn-46" value="" style="endArrow=none;html=1;rounded=0;entryX=1;entryY=0.25;entryDx=0;entryDy=0;exitX=0;exitY=0.5;exitDx=0;exitDy=0;" parent="1" source="hbbTRyOxC2RGxaQ1tcMn-45" target="hbbTRyOxC2RGxaQ1tcMn-1" edge="1">
          <mxGeometry width="50" height="50" relative="1" as="geometry">
            <mxPoint x="1540" y="500" as="sourcePoint" />
            <mxPoint x="1590" y="450" as="targetPoint" />
          </mxGeometry>
        </mxCell>
        <mxCell id="hbbTRyOxC2RGxaQ1tcMn-47" value="" style="endArrow=none;html=1;rounded=0;entryX=0.5;entryY=1;entryDx=0;entryDy=0;exitX=0.25;exitY=0;exitDx=0;exitDy=0;" parent="1" source="hbbTRyOxC2RGxaQ1tcMn-12" target="hbbTRyOxC2RGxaQ1tcMn-45" edge="1">
          <mxGeometry width="50" height="50" relative="1" as="geometry">
            <mxPoint x="1540" y="500" as="sourcePoint" />
            <mxPoint x="1590" y="450" as="targetPoint" />
          </mxGeometry>
        </mxCell>
        <mxCell id="hbbTRyOxC2RGxaQ1tcMn-55" value="BookDiscussion" style="rounded=0;whiteSpace=wrap;html=1;" parent="1" vertex="1">
          <mxGeometry x="1786" y="109" width="90" height="35" as="geometry" />
        </mxCell>
        <mxCell id="hbbTRyOxC2RGxaQ1tcMn-56" value="Has" style="rhombus;whiteSpace=wrap;html=1;" parent="1" vertex="1">
          <mxGeometry x="1616" y="104" width="80" height="45" as="geometry" />
        </mxCell>
        <mxCell id="hbbTRyOxC2RGxaQ1tcMn-57" value="" style="endArrow=none;html=1;rounded=0;entryX=1;entryY=0.5;entryDx=0;entryDy=0;exitX=0;exitY=1;exitDx=0;exitDy=0;" parent="1" source="hbbTRyOxC2RGxaQ1tcMn-56" target="hbbTRyOxC2RGxaQ1tcMn-4" edge="1">
          <mxGeometry width="50" height="50" relative="1" as="geometry">
            <mxPoint x="1536" y="464" as="sourcePoint" />
            <mxPoint x="1586" y="414" as="targetPoint" />
            <Array as="points">
              <mxPoint x="1566" y="172" />
            </Array>
          </mxGeometry>
        </mxCell>
        <mxCell id="hbbTRyOxC2RGxaQ1tcMn-58" value="" style="endArrow=none;html=1;rounded=0;entryX=1;entryY=0.5;entryDx=0;entryDy=0;exitX=0;exitY=0.5;exitDx=0;exitDy=0;" parent="1" source="hbbTRyOxC2RGxaQ1tcMn-55" target="hbbTRyOxC2RGxaQ1tcMn-56" edge="1">
          <mxGeometry width="50" height="50" relative="1" as="geometry">
            <mxPoint x="1536" y="464" as="sourcePoint" />
            <mxPoint x="1586" y="414" as="targetPoint" />
          </mxGeometry>
        </mxCell>
        <mxCell id="hbbTRyOxC2RGxaQ1tcMn-59" value="Adds" style="rhombus;whiteSpace=wrap;html=1;" parent="1" vertex="1">
          <mxGeometry x="1626" y="184" width="80" height="50" as="geometry" />
        </mxCell>
        <mxCell id="hbbTRyOxC2RGxaQ1tcMn-60" value="" style="endArrow=none;html=1;rounded=0;entryX=1;entryY=0.5;entryDx=0;entryDy=0;exitX=0;exitY=0.5;exitDx=0;exitDy=0;" parent="1" source="hbbTRyOxC2RGxaQ1tcMn-59" target="keDXUPkcpk8_cCBQaGo0-1" edge="1">
          <mxGeometry width="50" height="50" relative="1" as="geometry">
            <mxPoint x="1536" y="464" as="sourcePoint" />
            <mxPoint x="1486" y="255.25" as="targetPoint" />
          </mxGeometry>
        </mxCell>
        <mxCell id="hbbTRyOxC2RGxaQ1tcMn-62" value="" style="endArrow=none;html=1;rounded=0;entryX=1;entryY=0.5;entryDx=0;entryDy=0;exitX=0;exitY=0.5;exitDx=0;exitDy=0;" parent="1" source="hbbTRyOxC2RGxaQ1tcMn-63" target="hbbTRyOxC2RGxaQ1tcMn-59" edge="1">
          <mxGeometry width="50" height="50" relative="1" as="geometry">
            <mxPoint x="1536" y="464" as="sourcePoint" />
            <mxPoint x="1586" y="414" as="targetPoint" />
          </mxGeometry>
        </mxCell>
        <mxCell id="hbbTRyOxC2RGxaQ1tcMn-63" value="Discussion&lt;div&gt;Comment&lt;/div&gt;" style="rounded=0;whiteSpace=wrap;html=1;" parent="1" vertex="1">
          <mxGeometry x="1786" y="191.5" width="90" height="35" as="geometry" />
        </mxCell>
        <mxCell id="hbbTRyOxC2RGxaQ1tcMn-64" value="&lt;u&gt;DiscussionCommentID&lt;/u&gt;" style="ellipse;whiteSpace=wrap;html=1;" parent="1" vertex="1">
          <mxGeometry x="1906" y="159" width="140" height="20" as="geometry" />
        </mxCell>
        <mxCell id="hbbTRyOxC2RGxaQ1tcMn-66" value="Content" style="ellipse;whiteSpace=wrap;html=1;" parent="1" vertex="1">
          <mxGeometry x="1922" y="234" width="80" height="20" as="geometry" />
        </mxCell>
        <mxCell id="hbbTRyOxC2RGxaQ1tcMn-67" value="" style="endArrow=none;html=1;rounded=0;entryX=0.5;entryY=1;entryDx=0;entryDy=0;exitX=0;exitY=0.5;exitDx=0;exitDy=0;" parent="1" source="hbbTRyOxC2RGxaQ1tcMn-66" target="hbbTRyOxC2RGxaQ1tcMn-63" edge="1">
          <mxGeometry width="50" height="50" relative="1" as="geometry">
            <mxPoint x="1536" y="474" as="sourcePoint" />
            <mxPoint x="1586" y="424" as="targetPoint" />
            <Array as="points">
              <mxPoint x="1831" y="244" />
            </Array>
          </mxGeometry>
        </mxCell>
        <mxCell id="hbbTRyOxC2RGxaQ1tcMn-69" value="" style="endArrow=none;html=1;rounded=0;entryX=0.5;entryY=0;entryDx=0;entryDy=0;exitX=0;exitY=0.5;exitDx=0;exitDy=0;" parent="1" source="hbbTRyOxC2RGxaQ1tcMn-64" target="hbbTRyOxC2RGxaQ1tcMn-63" edge="1">
          <mxGeometry width="50" height="50" relative="1" as="geometry">
            <mxPoint x="1536" y="474" as="sourcePoint" />
            <mxPoint x="1586" y="424" as="targetPoint" />
            <Array as="points">
              <mxPoint x="1831" y="169" />
            </Array>
          </mxGeometry>
        </mxCell>
        <mxCell id="hbbTRyOxC2RGxaQ1tcMn-70" value="To" style="rhombus;whiteSpace=wrap;html=1;" parent="1" vertex="1">
          <mxGeometry x="1736" y="154" width="60" height="30" as="geometry" />
        </mxCell>
        <mxCell id="hbbTRyOxC2RGxaQ1tcMn-71" value="" style="endArrow=none;html=1;rounded=0;entryX=0;entryY=0;entryDx=0;entryDy=0;exitX=0.5;exitY=1;exitDx=0;exitDy=0;" parent="1" source="hbbTRyOxC2RGxaQ1tcMn-70" target="hbbTRyOxC2RGxaQ1tcMn-63" edge="1">
          <mxGeometry width="50" height="50" relative="1" as="geometry">
            <mxPoint x="1816" y="474" as="sourcePoint" />
            <mxPoint x="1866" y="424" as="targetPoint" />
          </mxGeometry>
        </mxCell>
        <mxCell id="hbbTRyOxC2RGxaQ1tcMn-72" value="" style="endArrow=none;html=1;rounded=0;entryX=0.5;entryY=0;entryDx=0;entryDy=0;exitX=0;exitY=1;exitDx=0;exitDy=0;" parent="1" source="hbbTRyOxC2RGxaQ1tcMn-55" target="hbbTRyOxC2RGxaQ1tcMn-70" edge="1">
          <mxGeometry width="50" height="50" relative="1" as="geometry">
            <mxPoint x="1816" y="474" as="sourcePoint" />
            <mxPoint x="1866" y="424" as="targetPoint" />
          </mxGeometry>
        </mxCell>
        <mxCell id="hbbTRyOxC2RGxaQ1tcMn-73" value="&lt;u&gt;DiscussionID&lt;/u&gt;" style="ellipse;whiteSpace=wrap;html=1;" parent="1" vertex="1">
          <mxGeometry x="1756" y="69" width="80" height="20" as="geometry" />
        </mxCell>
        <mxCell id="hbbTRyOxC2RGxaQ1tcMn-74" value="" style="endArrow=none;html=1;rounded=0;entryX=0.5;entryY=0;entryDx=0;entryDy=0;exitX=0.5;exitY=1;exitDx=0;exitDy=0;" parent="1" source="hbbTRyOxC2RGxaQ1tcMn-73" target="hbbTRyOxC2RGxaQ1tcMn-55" edge="1">
          <mxGeometry width="50" height="50" relative="1" as="geometry">
            <mxPoint x="1816" y="474" as="sourcePoint" />
            <mxPoint x="1866" y="424" as="targetPoint" />
          </mxGeometry>
        </mxCell>
        <mxCell id="hbbTRyOxC2RGxaQ1tcMn-79" value="&lt;u&gt;Role: owner or member&lt;/u&gt;" style="ellipse;whiteSpace=wrap;html=1;" parent="1" vertex="1">
          <mxGeometry x="1244" y="242.25" width="112" height="36.5" as="geometry" />
        </mxCell>
        <mxCell id="hbbTRyOxC2RGxaQ1tcMn-81" value="" style="endArrow=none;html=1;rounded=0;entryX=1;entryY=0.5;entryDx=0;entryDy=0;exitX=0;exitY=0.5;exitDx=0;exitDy=0;" parent="1" source="keDXUPkcpk8_cCBQaGo0-1" target="hbbTRyOxC2RGxaQ1tcMn-79" edge="1">
          <mxGeometry width="50" height="50" relative="1" as="geometry">
            <mxPoint x="1406" y="255.25" as="sourcePoint" />
            <mxPoint x="1756" y="434" as="targetPoint" />
          </mxGeometry>
        </mxCell>
        <mxCell id="hbbTRyOxC2RGxaQ1tcMn-82" value="Topic" style="ellipse;whiteSpace=wrap;html=1;" parent="1" vertex="1">
          <mxGeometry x="1856" y="69" width="80" height="20" as="geometry" />
        </mxCell>
        <mxCell id="hbbTRyOxC2RGxaQ1tcMn-83" value="" style="endArrow=none;html=1;rounded=0;entryX=0.5;entryY=1;entryDx=0;entryDy=0;exitX=0.75;exitY=0;exitDx=0;exitDy=0;" parent="1" source="hbbTRyOxC2RGxaQ1tcMn-55" target="hbbTRyOxC2RGxaQ1tcMn-82" edge="1">
          <mxGeometry width="50" height="50" relative="1" as="geometry">
            <mxPoint x="1666" y="384" as="sourcePoint" />
            <mxPoint x="1716" y="334" as="targetPoint" />
          </mxGeometry>
        </mxCell>
        <mxCell id="hbbTRyOxC2RGxaQ1tcMn-88" value="Rating" style="ellipse;whiteSpace=wrap;html=1;" parent="1" vertex="1">
          <mxGeometry x="1321" y="496" width="80" height="20" as="geometry" />
        </mxCell>
        <mxCell id="hbbTRyOxC2RGxaQ1tcMn-101" value="" style="endArrow=none;html=1;rounded=0;fontSize=12;startSize=8;endSize=8;curved=1;entryX=1;entryY=0.5;entryDx=0;entryDy=0;exitX=0.5;exitY=0;exitDx=0;exitDy=0;" parent="1" source="hbbTRyOxC2RGxaQ1tcMn-20" target="hbbTRyOxC2RGxaQ1tcMn-1" edge="1">
          <mxGeometry width="50" height="50" relative="1" as="geometry">
            <mxPoint x="1443" y="367" as="sourcePoint" />
            <mxPoint x="1493" y="317" as="targetPoint" />
          </mxGeometry>
        </mxCell>
        <mxCell id="hbbTRyOxC2RGxaQ1tcMn-102" value="" style="endArrow=none;html=1;rounded=0;fontSize=12;startSize=8;endSize=8;curved=1;entryX=0;entryY=0.75;entryDx=0;entryDy=0;" parent="1" target="hbbTRyOxC2RGxaQ1tcMn-1" edge="1">
          <mxGeometry width="50" height="50" relative="1" as="geometry">
            <mxPoint x="1358" y="407" as="sourcePoint" />
            <mxPoint x="1493" y="317" as="targetPoint" />
          </mxGeometry>
        </mxCell>
        <mxCell id="keDXUPkcpk8_cCBQaGo0-1" value="Membership" style="rhombus;whiteSpace=wrap;html=1;" vertex="1" parent="1">
          <mxGeometry x="1401" y="238" width="80" height="45" as="geometry" />
        </mxCell>
        <mxCell id="keDXUPkcpk8_cCBQaGo0-2" value="" style="endArrow=none;html=1;rounded=0;fontSize=12;startSize=8;endSize=8;curved=1;entryX=1;entryY=0.5;entryDx=0;entryDy=0;exitX=0;exitY=0.5;exitDx=0;exitDy=0;" edge="1" parent="1" source="hbbTRyOxC2RGxaQ1tcMn-14" target="hbbTRyOxC2RGxaQ1tcMn-12">
          <mxGeometry width="50" height="50" relative="1" as="geometry">
            <mxPoint x="1555" y="418" as="sourcePoint" />
            <mxPoint x="1500" y="398" as="targetPoint" />
          </mxGeometry>
        </mxCell>
        <mxCell id="keDXUPkcpk8_cCBQaGo0-3" value="" style="endArrow=none;html=1;rounded=0;fontSize=12;startSize=8;endSize=8;curved=1;entryX=1;entryY=0.5;entryDx=0;entryDy=0;exitX=0;exitY=0.5;exitDx=0;exitDy=0;" edge="1" parent="1" source="hbbTRyOxC2RGxaQ1tcMn-15" target="hbbTRyOxC2RGxaQ1tcMn-12">
          <mxGeometry width="50" height="50" relative="1" as="geometry">
            <mxPoint x="1565" y="428" as="sourcePoint" />
            <mxPoint x="1510" y="408" as="targetPoint" />
          </mxGeometry>
        </mxCell>
        <mxCell id="keDXUPkcpk8_cCBQaGo0-6" value="" style="endArrow=none;html=1;rounded=0;entryX=0.25;entryY=1;entryDx=0;entryDy=0;exitX=0.5;exitY=0;exitDx=0;exitDy=0;" edge="1" parent="1" source="hbbTRyOxC2RGxaQ1tcMn-7" target="hbbTRyOxC2RGxaQ1tcMn-5">
          <mxGeometry width="50" height="50" relative="1" as="geometry">
            <mxPoint x="1740" y="615" as="sourcePoint" />
            <mxPoint x="1670" y="615" as="targetPoint" />
          </mxGeometry>
        </mxCell>
        <mxCell id="keDXUPkcpk8_cCBQaGo0-7" value="" style="endArrow=none;html=1;rounded=0;entryX=0.75;entryY=1;entryDx=0;entryDy=0;exitX=0.5;exitY=0;exitDx=0;exitDy=0;" edge="1" parent="1" source="hbbTRyOxC2RGxaQ1tcMn-9" target="hbbTRyOxC2RGxaQ1tcMn-5">
          <mxGeometry width="50" height="50" relative="1" as="geometry">
            <mxPoint x="1750" y="625" as="sourcePoint" />
            <mxPoint x="1680" y="625" as="targetPoint" />
          </mxGeometry>
        </mxCell>
        <mxCell id="keDXUPkcpk8_cCBQaGo0-10" value="" style="endArrow=none;html=1;rounded=0;fontSize=12;startSize=8;endSize=8;curved=1;entryX=0;entryY=0.5;entryDx=0;entryDy=0;exitX=1;exitY=0.5;exitDx=0;exitDy=0;" edge="1" parent="1" source="hbbTRyOxC2RGxaQ1tcMn-88" target="hbbTRyOxC2RGxaQ1tcMn-2">
          <mxGeometry width="50" height="50" relative="1" as="geometry">
            <mxPoint x="1415" y="501.5" as="sourcePoint" />
            <mxPoint x="1430" y="416" as="targetPoint" />
          </mxGeometry>
        </mxCell>
      </root>
    </mxGraphModel>
  </diagram>
</mxfile>
